<?xml version="1.0" encoding="UTF-8"?>
<!-- Generator: Adobe Illustrator 16.0.0, SVG Export Plug-In . SVG Version: 6.00 Build 0)  -->
<!DOCTYPE svg PUBLIC "-//W3C//DTD SVG 1.1//EN" "http://www.w3.org/Graphics/SVG/1.1/DTD/svg11.dtd">
<svg version="1.1" id="Layer_1" xmlns="http://www.w3.org/2000/svg" xmlns:xlink="http://www.w3.org/1999/xlink" x="0px" y="0px" width="200px" height="200px" viewBox="0 0 200 200" enable-background="new 0 0 200 200" xml:space="preserve">
<g display="none">
</g>
<g display="none">
	<g display="inline">
		<g>
			<defs>
				<rect id="SVGID_3_" x="-6.25" y="-6" width="211.5" height="211.5"/>
			</defs>
			<clipPath id="SVGID_4_">
				<use xlink:href="#SVGID_3_" overflow="visible"/>
			</clipPath>
			<polygon clip-path="url(#SVGID_4_)" fill="#010202" points="70.737,75.891 64.945,86.721 73.366,86.721    "/>
		</g>
		<g display="none">
			<defs>
				<rect id="SVGID_6_" x="-6.25" y="-6" width="211.5" height="211.5"/>
			</defs>
			<clipPath id="SVGID_8_" display="inline">
				<use xlink:href="#SVGID_6_" overflow="visible"/>
			</clipPath>
			<g display="inline" clip-path="url(#SVGID_8_)">
				<g>
					<defs>
						<rect id="SVGID_9_" x="-6.25" y="-6" width="211.5" height="211.5"/>
					</defs>
					<defs>
						<rect id="SVGID_10_" x="-6.25" y="-6" width="211.5" height="211.5"/>
					</defs>
					<clipPath id="SVGID_11_">
						<use xlink:href="#SVGID_9_" overflow="visible"/>
					</clipPath>
					<clipPath id="SVGID_12_" clip-path="url(#SVGID_11_)">
						<use xlink:href="#SVGID_10_" overflow="visible"/>
					</clipPath>
					<path clip-path="url(#SVGID_12_)" fill="#010202" d="M99.771,8.555c-49.711,0-90.009,40.299-90.009,90.008       c0,49.71,40.298,90.009,90.009,90.009c49.709,0,90.008-40.299,90.008-90.009C189.779,48.854,149.48,8.555,99.771,8.555        M157.684,66.648l5.123,13.166l9.344-13.166h7.084l-14.036,19.74l-1.767,13.142h-6.17l1.812-13.143l-7.646-19.739H157.684z        M131.8,66.648h17.685l-0.758,5.834h-11.476l-0.942,6.796h11.533l-0.75,5.789h-11.587l-1.21,8.72h11.663l-0.745,5.743h-17.906       L131.8,66.648z M91.964,66.648h6.21l-3.767,27.229h10.209L103.9,99.53H87.469L91.964,66.648z M74.425,66.648l8.193,32.882       h-5.991l-1.743-6.997H61.838l-3.741,6.997h-6.641l17.761-32.882H74.425L74.425,66.648z M22.281,66.648h6.021l5.884,23.74       l12.729-23.74h6.641L35.951,99.53h-5.519L22.281,66.648z M45.825,128.741l-1.708,12.712H38.15l1.75-12.712l-7.394-19.091h6.049       l4.956,12.732l9.038-12.732H59.4L45.825,128.741z M91.522,133.143c-1.679,2.933-3.914,5.185-6.703,6.756       c-2.789,1.568-5.993,2.354-9.609,2.354c-4.528,0-8.141-1.339-10.844-4.021c-2.702-2.682-4.054-6.213-4.054-10.592       c0-4.978,1.615-9.248,4.844-12.824c3.603-3.978,8.208-5.969,13.815-5.969c4.368,0,7.971,1.405,10.812,4.219       c2.839,2.81,4.26,6.377,4.26,10.701C94.042,127.081,93.203,130.207,91.522,133.143 M120.363,128.633       c-0.535,3.906-1.233,6.71-2.1,8.408c-0.865,1.705-2.115,2.999-3.752,3.885c-1.638,0.885-3.629,1.327-5.979,1.327       c-3.171,0-5.646-0.842-7.417-2.528c-1.774-1.688-2.66-3.992-2.66-6.92c0-1.268,0.173-3.141,0.519-5.619l2.397-17.535h5.947       l-2.661,19.631c-0.229,1.716-0.345,2.928-0.345,3.632c0,1.198,0.371,2.13,1.113,2.801c0.742,0.67,1.82,1.005,3.233,1.005       c1.14,0,2.136-0.252,2.987-0.755c0.633-0.376,1.143-0.999,1.522-1.872c0.383-0.871,0.754-2.604,1.115-5.199l2.629-19.24h6.019       L120.363,128.633z M124.043,99.53h-16.432l4.494-32.882h6.211l-3.767,27.229h10.207L124.043,99.53z M134.305,141.453h-5.929       l3.572-26.139h-6.902l0.733-5.664h19.418l-0.691,5.664h-6.63L134.305,141.453z M166.995,141.453h-5.972l1.975-14.441h-10.92       l-1.993,14.441h-5.946l4.346-31.803h5.99l-1.654,11.996h10.91l1.64-11.996h6.014L166.995,141.453z"/>
					<path clip-path="url(#SVGID_12_)" fill="#010202" d="M78.755,114.492c-2.278,0-4.357,0.551-6.238,1.654       c-1.882,1.104-3.399,2.687-4.552,4.756c-1.152,2.066-1.729,4.205-1.729,6.412c0,2.606,0.8,4.822,2.401,6.638       c1.599,1.815,3.897,2.722,6.896,2.722c3.474,0,6.425-1.224,8.854-3.675c2.429-2.449,3.643-5.427,3.643-8.931       c0-2.896-0.853-5.217-2.561-6.961C83.76,115.363,81.522,114.492,78.755,114.492"/>
				</g>
			</g>
		</g>
		<g>
			<g>
				<g display="none">
					<rect id="SVGID_5_" display="inline" fill="#FFFFFF" width="200.001" height="200"/>
				</g>
				<g display="none">
					<defs>
						<rect id="SVGID_13_" width="200.001" height="200"/>
					</defs>
					<clipPath id="SVGID_14_" display="inline">
						<use xlink:href="#SVGID_13_" overflow="visible"/>
					</clipPath>
					<g display="inline" clip-path="url(#SVGID_14_)">
						<g>
							<rect id="SVGID_7_" fill="#FFFFFF" width="200.001" height="200"/>
						</g>
						<g display="none">
							<defs>
								<rect id="SVGID_15_" width="200.001" height="200"/>
							</defs>
							<clipPath id="SVGID_16_" display="inline">
								<use xlink:href="#SVGID_15_" overflow="visible"/>
							</clipPath>
							<path display="inline" clip-path="url(#SVGID_16_)" fill="#010202" d="M100.256,8.165c-50.101,0-90.715,40.614-90.715,90.715         c0,50.099,40.614,90.714,90.715,90.714c50.102,0,90.715-40.615,90.715-90.714C190.971,48.779,150.357,8.165,100.256,8.165          M100.256,182.453c-46.157,0-83.575-37.416-83.575-83.574c0-46.157,37.418-83.575,83.575-83.575         c46.157,0,83.575,37.418,83.575,83.575C183.831,145.037,146.413,182.453,100.256,182.453"/>
						</g>
						<g>
							<defs>
								<rect id="SVGID_17_" width="200.001" height="200"/>
							</defs>
							<clipPath id="SVGID_18_">
								<use xlink:href="#SVGID_17_" overflow="visible"/>
							</clipPath>
							<g display="none" clip-path="url(#SVGID_18_)">
								
									<text transform="matrix(1 0 0 1 24.7617 99.793)" display="inline" fill="#010202" font-family="'CenturyGothic-BoldItalic'" font-size="43.2937">VALLEY</text>
							</g>
						</g>
						<g>
							<defs>
								<rect id="SVGID_19_" width="200.001" height="200"/>
							</defs>
							<clipPath id="SVGID_20_">
								<use xlink:href="#SVGID_19_" overflow="visible"/>
							</clipPath>
							<g display="none" clip-path="url(#SVGID_20_)">
								
									<text transform="matrix(1 0 0 1 35.3008 139.4355)" display="inline" fill="#010202" font-family="'CenturyGothic-BoldItalic'" font-size="41.8729">YOUTH</text>
							</g>
						</g>
						<g>
							<defs>
								<rect id="SVGID_21_" width="200.001" height="200"/>
							</defs>
							<clipPath id="SVGID_22_">
								<use xlink:href="#SVGID_21_" overflow="visible"/>
							</clipPath>
							
								<circle opacity="0.3" clip-path="url(#SVGID_22_)" fill="#FFFFFF" enable-background="new    " cx="100.001" cy="98.938" r="96.109"/>
						</g>
					</g>
				</g>
				<circle fill="#2B3F6D" cx="100" cy="98.756" r="89.5"/>
				
					<text transform="matrix(1 0 0 1 89.5234 119.3945)" display="none" fill="#FFFFFF" enable-background="new    " font-family="'Metropolis'" font-size="69.32">2</text>
				
					<text transform="matrix(1 0 0 1 48.1738 119.3945)" display="none" fill="#FFFFFF" enable-background="new    " font-family="'Metropolis'" font-size="69.32">C</text>
				
					<text transform="matrix(1 0 0 1 129.166 119.3945)" display="none" fill="#FFFFFF" enable-background="new    " font-family="'Metropolis'" font-size="69.32">C</text>
				
					<text transform="matrix(1 0 0 1 48.9307 139)" display="none" fill="#FFFFFF" enable-background="new    " font-family="'Avenir-Medium'" font-size="10">FIRM FOUNDATIONS</text>
				<circle fill="none" stroke="#FFFFFF" stroke-miterlimit="10" cx="100.518" cy="99.015" r="83.253"/>
				<circle fill="none" stroke="#FFFFFF" stroke-miterlimit="10" cx="100.518" cy="99.016" r="79.253"/>
				<path fill="#DD8718" d="M117.54,68.311c0.526,5.649-1.229,10.958-5.087,12.326c8.068-21.056-13.605-26.704-15.26-43.824      c-13.156,12.497,0.846,28.089-8.008,35.814c2.415-5.919,2.219-13.731-4.271-17.497c3.684,6.676-10.01,18.668-10.701,28.87      c-0.69,6.529,1.844,11.351,6.29,14.606c1.876-7.435,10.589-15.652,7.969-20.402c5.034,2.921,5.186,8.98,3.313,13.573      c6.867-5.994-3.995-18.087,6.211-27.781c1.283,13.279,18.096,17.661,11.838,33.994c2.991-1.062,4.354-5.178,3.945-9.561      c3.037,2.227,6.035,5.41,7.185,9.459c3.468-2.727,5.408-6.036,6.074-9.14C129.023,79.486,123.329,72.556,117.54,68.311z"/>
				
					<text transform="matrix(1 0 0 1 66.9888 149.3496)" fill="#FFFFFF" font-family="'BookmanOldStyle-BoldItalic'" font-size="27.5633">men</text>
				
					<text transform="matrix(1 0 0 1 69.0195 146.0098)" display="none" fill="#FFFFFF" enable-background="new    " font-family="'Yellowtail'" font-size="25.3788">women</text>
				
					<text transform="matrix(1.0472 0 0 1 65.7944 127.1143)" display="none" fill="#FFFFFF" enable-background="new    " font-family="'Avenir-Black'" font-size="40.1204">MB</text>
				<circle display="none" opacity="0.4" fill="#FFFFFF" enable-background="new    " cx="100" cy="100" r="98.25"/>
				<path display="none" fill="#FFFFFF" d="M95.178,90.606c-0.207-0.042-0.479-0.099-0.752-0.154      c-0.277-0.056-0.582-0.389-0.812,0.088c-0.016,0.034-0.197,0.004-0.294-0.023c-0.207-0.058-0.449-0.084-0.606-0.21      c-0.937-0.753-2.005-0.981-3.19-1.081c-1.627-0.136-2.787-1.26-4.036-2.286c0.206-0.049,0.343-0.082,0.56-0.134      c-2.121-1.565-3.259-3.585-3.2-6.31c2.703,0.202,5.422,0.481,7.996-0.543c2.518-1.003,4.615-2.66,6.596-4.565      c-0.72-0.11-1.029,0.022-1.619,0.637c-0.387,0.404-0.792,0.766-1.448,0.628c0.133-0.454,0.251-0.854,0.4-1.362      c-0.611,0.283-1.108,0.513-1.767,0.818c0.189-0.55,0.322-0.938,0.5-1.457c-0.507,0.193-0.905,0.344-1.381,0.524      c0.218-0.501,0.398-0.916,0.612-1.407c-1.005-0.034-1.963,0.161-2.655-0.698c0.135-0.168,0.264-0.33,0.433-0.542      c-0.707-0.249-1.592-0.071-2.043-0.907c0.21-0.158,0.408-0.306,0.623-0.467c-1.13-0.729-2.23-1.44-3.331-2.15      c0.023-0.06,0.046-0.12,0.069-0.179c0.667-0.058,1.334-0.115,2.001-0.172c-1.883-1.273-3.208-2.923-4.133-4.996      c0.523-0.057,1.001-0.109,1.607-0.175c-1.609-1.379-2.83-2.915-3.669-4.866c0.558,0.058,1.049,0.109,1.7,0.177      c-1.295-1.774-2.358-3.542-2.476-5.692c-0.029-0.531-0.004-1.066-0.004-1.722c0.39,0.217,0.679,0.377,1.111,0.618      c-1.105-3.275-0.154-6.267,0.817-9.403c0.131,0.268,0.214,0.42,0.283,0.578c1.154,2.642,2.41,5.252,4.445,7.326      c1.459,1.488,3.097,2.823,4.769,4.074c1.567,1.17,3.284,2.14,5.02,3.142c-0.159-0.264-0.325-0.525-0.475-0.794      c-0.348-0.627-0.631-1.252-0.514-2.022c0.05-0.332-0.139-0.708-0.247-1.055c-0.353-1.128-0.473-2.271-0.254-3.54      c0.418,0.306,0.791,0.58,1.165,0.853c-0.704-2.223-1.099-4.422,0.088-6.737c0.448,0.793,0.865,1.529,1.363,2.409      c0.068-0.644,0.117-1.139,0.175-1.632c0.089-0.749,0.168-1.499,0.281-2.243c0.266-1.75,1.355-2.988,2.61-4.114      c0.072-0.066,0.181-0.097,0.191-0.103c0.578,1.935,1.107,3.863,1.734,5.759c0.635,1.92,1.676,3.626,2.885,5.253      c2.576,3.47,3.336,7.385,2.527,11.589c-0.184,0.952-0.721,1.836-1.102,2.749c-0.104,0.25-0.23,0.492-0.371,0.784      c0.777-0.261,1.459-0.564,2.176-0.717c1.744-0.372,2.806,0.305,3.346,2.009c0.057,0.179,0.271,0.429,0.417,0.433      c0.351,0.008,0.823,0.006,1.029-0.205c0.461-0.472,0.762-1.096,1.181-1.616c0.418-0.52,0.9-0.988,1.354-1.479      c-1.042-2.819-0.567-4.538,1.604-5.793c1.132,1.002,1.101,2.354-0.143,4.833c0.886-0.434,1.739-0.824,2.563-1.274      c0.223-0.121,0.373-0.407,0.508-0.645c0.73-1.289,1.684-2.266,3.233-2.514c1.222-0.195,2.253,0.287,3.394,0.772      c-1.271,1.411-2.614,2.464-4.484,2.614c-0.732,0.059-1.469,0.082-2.199,0.151c-0.273,0.026-0.54,0.136-0.807,0.3      c1.787-0.06,3.101,0.701,4.104,2.098c-2.195,1.251-3.345,1.442-5.916-1.089c-0.633,0.49-1.271,0.987-2.057,1.594      c1.148,0.104,2.227-0.415,3.148,0.281c0.834,0.627,1.578,1.335,2.031,2.301c-1.904,0.966-4.037,0.327-5.805-1.828      c-0.344,0.671-0.646,1.287-0.973,1.891c-0.146,0.273-0.375,0.506-0.502,0.787c-0.664,1.467-1.045,3.017-1.149,4.618      c-0.046,0.695-0.3,1.088-1.063,1.181c0.033-1.908,0.691-3.664,1.225-5.501c-0.594-0.024-0.952,0.289-1.254,0.681      c-0.756,0.981-1.317,2.037-1.664,3.255c-0.605,2.129-1.249,4.264-2.102,6.304c-0.884,2.118-2.406,3.792-4.474,4.873      c-2.173,1.137-4.487,1.473-6.906,1.026c-0.106-0.02-0.211-0.043-0.317-0.058c-0.04-0.005-0.083,0.011-0.271,0.041      C96.131,86.276,95.661,88.409,95.178,90.606z"/>
			</g>
		</g>
	</g>
</g>
<g>
	<g>
		<g display="none">
			<defs>
				<rect id="SVGID_23_" x="-6.251" y="-6" width="211.5" height="211.5"/>
			</defs>
			<clipPath id="SVGID_24_" display="inline">
				<use xlink:href="#SVGID_23_" overflow="visible"/>
			</clipPath>
			<g display="inline" clip-path="url(#SVGID_24_)">
				<g>
					<defs>
						<rect id="SVGID_25_" x="-6.251" y="-6" width="211.5" height="211.5"/>
					</defs>
					<defs>
						<rect id="SVGID_26_" x="-6.251" y="-6" width="211.5" height="211.5"/>
					</defs>
					<clipPath id="SVGID_27_">
						<use xlink:href="#SVGID_25_" overflow="visible"/>
					</clipPath>
					<clipPath id="SVGID_28_" clip-path="url(#SVGID_27_)">
						<use xlink:href="#SVGID_26_" overflow="visible"/>
					</clipPath>
				</g>
			</g>
		</g>
		<g>
			<g>
				<g display="none">
					<rect id="SVGID_2_" x="-0.001" y="0" display="inline" fill="#FFFFFF" width="200.001" height="200"/>
				</g>
				<g display="none">
					<defs>
						<rect id="SVGID_29_" x="-0.001" y="0" width="200.001" height="200"/>
					</defs>
					<clipPath id="SVGID_30_" display="inline">
						<use xlink:href="#SVGID_29_" overflow="visible"/>
					</clipPath>
					<g display="inline" clip-path="url(#SVGID_30_)">
						<g>
							<rect id="SVGID_1_" x="-0.001" y="0" fill="#FFFFFF" width="200.001" height="200"/>
						</g>
						<g display="none">
							<defs>
								<rect id="SVGID_31_" x="-0.001" y="0" width="200.001" height="200"/>
							</defs>
							<clipPath id="SVGID_32_" display="inline">
								<use xlink:href="#SVGID_31_" overflow="visible"/>
							</clipPath>
							<path display="inline" clip-path="url(#SVGID_32_)" fill="#010202" d="M100.255,8.166C50.153,8.166,9.54,48.779,9.54,98.88         c0,50.098,40.613,90.713,90.715,90.713s90.715-40.615,90.715-90.713C190.97,48.779,150.356,8.166,100.255,8.166          M100.255,182.453c-46.156,0-83.574-37.416-83.574-83.574c0-46.157,37.418-83.575,83.574-83.575         c46.157,0,83.575,37.418,83.575,83.575C183.83,145.037,146.412,182.453,100.255,182.453"/>
						</g>
						<g>
							<defs>
								<rect id="SVGID_33_" x="-0.001" y="0" width="200.001" height="200"/>
							</defs>
							<clipPath id="SVGID_34_">
								<use xlink:href="#SVGID_33_" overflow="visible"/>
							</clipPath>
							<g display="none" clip-path="url(#SVGID_34_)">
								
									<text transform="matrix(1 0 0 1 24.7607 99.7935)" display="inline" fill="#010202" font-family="'CenturyGothic-BoldItalic'" font-size="43.2937">VALLEY</text>
							</g>
						</g>
						<g>
							<defs>
								<rect id="SVGID_35_" x="-0.001" y="0" width="200.001" height="200"/>
							</defs>
							<clipPath id="SVGID_36_">
								<use xlink:href="#SVGID_35_" overflow="visible"/>
							</clipPath>
							<g display="none" clip-path="url(#SVGID_36_)">
								
									<text transform="matrix(1 0 0 1 35.2998 139.4355)" display="inline" fill="#010202" font-family="'CenturyGothic-BoldItalic'" font-size="41.8729">YOUTH</text>
							</g>
						</g>
						<g>
							<defs>
								<rect id="SVGID_37_" x="-0.001" y="0" width="200.001" height="200"/>
							</defs>
							<clipPath id="SVGID_38_">
								<use xlink:href="#SVGID_37_" overflow="visible"/>
							</clipPath>
							
								<circle opacity="0.3" clip-path="url(#SVGID_38_)" fill="#FFFFFF" enable-background="new    " cx="100" cy="98.938" r="96.109"/>
						</g>
					</g>
				</g>
				<circle fill="#CE1B75" cx="99.999" cy="98.756" r="89.5"/>
				
					<text transform="matrix(1 0 0 1 89.5225 119.3945)" display="none" fill="#FFFFFF" enable-background="new    " font-family="'Metropolis'" font-size="69.32">2</text>
				
					<text transform="matrix(1 0 0 1 48.1729 119.3945)" display="none" fill="#FFFFFF" enable-background="new    " font-family="'Metropolis'" font-size="69.32">C</text>
				
					<text transform="matrix(1 0 0 1 129.165 119.3945)" display="none" fill="#FFFFFF" enable-background="new    " font-family="'Metropolis'" font-size="69.32">C</text>
				
					<text transform="matrix(1 0 0 1 48.9297 139)" display="none" fill="#FFFFFF" enable-background="new    " font-family="'Avenir-Medium'" font-size="10">FIRM FOUNDATIONS</text>
				<circle display="none" fill="none" stroke="#FFFFFF" stroke-miterlimit="10" cx="100.517" cy="99.015" r="83.252"/>
				<circle fill="none" stroke="#FFFFFF" stroke-width="2" stroke-miterlimit="10" cx="100.517" cy="99.017" r="79.253"/>
				<path display="none" fill="#DD8718" d="M117.539,60.993c0.526,5.649-1.229,10.958-5.087,12.326      c8.068-21.056-13.605-26.704-15.26-43.824c-13.156,12.497,0.846,28.089-8.008,35.814c2.414-5.919,2.219-13.731-4.271-17.497      c3.684,6.676-10.01,18.668-10.701,28.87c-0.689,6.529,1.844,11.352,6.29,14.606c1.876-7.435,10.589-15.652,7.97-20.402      c5.033,2.921,5.186,8.98,3.312,13.573c6.867-5.994-3.995-18.087,6.211-27.781c1.283,13.279,18.096,17.661,11.838,33.994      c2.991-1.062,4.354-5.178,3.945-9.561c3.037,2.227,6.035,5.41,7.185,9.459c3.468-2.728,5.408-6.036,6.074-9.141      C129.022,72.167,123.328,65.237,117.539,60.993z"/>
				
					<text transform="matrix(1 0 0 1 66.9878 149.3496)" display="none" fill="#FFFFFF" enable-background="new    " font-family="'BookmanOldStyle-BoldItalic'" font-size="27.5633">men</text>
				
					<text transform="matrix(1 0 0 1 63.8745 148.3506)" fill="#FFFFFF" font-family="'Yellowtail'" font-size="30.2893" letter-spacing="1">women</text>
				
					<text transform="matrix(1.0472 0 0 1 65.7935 127.1152)" display="none" fill="#FFFFFF" enable-background="new    " font-family="'Avenir-Black'" font-size="40.1204">MB</text>
				<circle display="none" opacity="0.4" fill="#FFFFFF" enable-background="new    " cx="99.999" cy="100" r="98.25"/>
				<path fill="#FFFFFF" d="M95.177,96.606c-0.207-0.041-0.479-0.099-0.752-0.153c-0.277-0.057-0.582-0.389-0.812,0.088      c-0.016,0.034-0.196,0.004-0.293-0.022c-0.207-0.059-0.449-0.085-0.606-0.21c-0.937-0.754-2.005-0.981-3.19-1.082      c-1.627-0.136-2.787-1.26-4.035-2.285c0.205-0.049,0.343-0.082,0.56-0.135c-2.121-1.564-3.259-3.584-3.2-6.31      c2.703,0.202,5.422,0.481,7.996-0.543c2.518-1.003,4.615-2.66,6.596-4.565c-0.719-0.109-1.028,0.022-1.619,0.637      c-0.387,0.404-0.791,0.767-1.447,0.629c0.133-0.454,0.251-0.854,0.4-1.362c-0.611,0.283-1.108,0.513-1.768,0.817      c0.189-0.549,0.322-0.938,0.5-1.457c-0.507,0.193-0.904,0.345-1.381,0.524c0.218-0.501,0.398-0.916,0.611-1.407      c-1.004-0.033-1.963,0.162-2.654-0.697c0.135-0.168,0.264-0.33,0.434-0.543c-0.707-0.248-1.593-0.07-2.043-0.906      c0.209-0.158,0.407-0.307,0.623-0.467c-1.131-0.729-2.23-1.44-3.332-2.15c0.023-0.061,0.047-0.12,0.069-0.179      c0.667-0.058,1.334-0.115,2.001-0.173c-1.883-1.272-3.208-2.922-4.133-4.995c0.523-0.057,1.001-0.109,1.607-0.175      c-1.609-1.379-2.83-2.915-3.67-4.866c0.559,0.058,1.049,0.109,1.7,0.177c-1.295-1.774-2.358-3.542-2.476-5.692      c-0.029-0.531-0.004-1.066-0.004-1.722c0.39,0.217,0.679,0.377,1.111,0.618c-1.105-3.275-0.154-6.267,0.816-9.403      c0.131,0.268,0.214,0.42,0.283,0.578c1.154,2.642,2.41,5.252,4.445,7.326c1.459,1.488,3.096,2.823,4.769,4.074      c1.567,1.17,3.284,2.14,5.021,3.142c-0.16-0.264-0.326-0.525-0.476-0.794c-0.349-0.627-0.631-1.252-0.515-2.022      c0.051-0.332-0.139-0.708-0.246-1.055c-0.354-1.128-0.473-2.271-0.254-3.54c0.418,0.306,0.791,0.58,1.164,0.853      c-0.703-2.223-1.099-4.422,0.088-6.737c0.449,0.793,0.865,1.529,1.363,2.409c0.068-0.644,0.117-1.139,0.176-1.632      c0.088-0.749,0.168-1.499,0.281-2.243c0.266-1.75,1.354-2.988,2.609-4.114c0.072-0.066,0.181-0.097,0.191-0.103      c0.578,1.935,1.107,3.863,1.734,5.759c0.635,1.92,1.676,3.626,2.885,5.253c2.576,3.47,3.336,7.385,2.527,11.589      c-0.184,0.952-0.721,1.836-1.102,2.749c-0.104,0.25-0.23,0.492-0.371,0.784c0.777-0.261,1.459-0.564,2.176-0.717      c1.744-0.372,2.806,0.305,3.346,2.009c0.057,0.179,0.271,0.429,0.417,0.433c0.351,0.008,0.823,0.006,1.029-0.205      c0.461-0.472,0.762-1.096,1.181-1.616c0.418-0.52,0.9-0.988,1.354-1.479c-1.042-2.819-0.567-4.538,1.604-5.793      c1.132,1.002,1.101,2.354-0.143,4.833c0.886-0.434,1.739-0.824,2.563-1.274c0.223-0.121,0.373-0.407,0.508-0.645      c0.73-1.289,1.684-2.266,3.233-2.514c1.222-0.195,2.253,0.287,3.394,0.772c-1.271,1.411-2.614,2.464-4.484,2.614      c-0.732,0.059-1.469,0.082-2.199,0.151c-0.273,0.026-0.54,0.136-0.807,0.3c1.787-0.06,3.101,0.701,4.104,2.098      c-2.195,1.251-3.345,1.442-5.916-1.089c-0.633,0.49-1.271,0.987-2.057,1.594c1.148,0.104,2.227-0.415,3.148,0.281      c0.834,0.627,1.578,1.335,2.031,2.301c-1.904,0.966-4.037,0.327-5.805-1.828c-0.344,0.671-0.646,1.287-0.973,1.891      c-0.146,0.273-0.375,0.506-0.502,0.787c-0.664,1.467-1.045,3.017-1.149,4.619c-0.046,0.694-0.3,1.088-1.063,1.181      c0.033-1.908,0.691-3.664,1.225-5.501c-0.594-0.024-0.952,0.289-1.254,0.681c-0.756,0.981-1.317,2.037-1.664,3.255      c-0.605,2.129-1.249,4.264-2.102,6.305c-0.884,2.117-2.406,3.791-4.474,4.873c-2.173,1.137-4.487,1.473-6.905,1.025      c-0.107-0.02-0.212-0.043-0.318-0.059c-0.039-0.004-0.082,0.012-0.271,0.041C96.13,92.277,95.66,94.41,95.177,96.606z"/>
			</g>
		</g>
	</g>
</g>
<text transform="matrix(1 0 0 1 50.4751 126.1982)" fill="#FFFFFF" font-family="'Avenir-Black'" font-size="25">VALLEY</text>
</svg>