<?xml version="1.0" encoding="UTF-8"?>
<!-- Generator: Adobe Illustrator 16.0.0, SVG Export Plug-In . SVG Version: 6.00 Build 0)  -->
<!DOCTYPE svg PUBLIC "-//W3C//DTD SVG 1.1//EN" "http://www.w3.org/Graphics/SVG/1.1/DTD/svg11.dtd">
<svg version="1.1" id="Layer_1" xmlns="http://www.w3.org/2000/svg" xmlns:xlink="http://www.w3.org/1999/xlink" x="0px" y="0px" width="200px" height="200px" viewBox="0 0 200 200" enable-background="new 0 0 200 200" xml:space="preserve">
<g display="none">
	
		<image display="inline" overflow="visible" width="397" height="425" id="valley_kidz_1_" xlink:href="AD8C029DBDBC6C96.png" transform="matrix(0.4647 0 0 0.4647 7.75 0)">
	</image>
</g>
<g display="none">
	<g display="inline">
		<defs>
			<rect id="SVGID_1_" x="-6.25" y="-6" width="211.5" height="211.5"/>
		</defs>
		<clipPath id="SVGID_2_">
			<use xlink:href="#SVGID_1_" overflow="visible"/>
		</clipPath>
		<polygon clip-path="url(#SVGID_2_)" fill="#010202" points="70.737,75.891 64.945,86.721 73.366,86.721   "/>
		<g clip-path="url(#SVGID_2_)">
			<defs>
				<rect id="SVGID_3_" x="-6.25" y="-6" width="211.5" height="211.5"/>
			</defs>
			<clipPath id="SVGID_4_">
				<use xlink:href="#SVGID_3_" overflow="visible"/>
			</clipPath>
			<path clip-path="url(#SVGID_4_)" fill="#010202" d="M99.771,8.555c-49.711,0-90.009,40.299-90.009,90.008     c0,49.711,40.298,90.009,90.009,90.009c49.71,0,90.009-40.298,90.009-90.009C189.78,48.854,149.481,8.555,99.771,8.555      M157.683,66.648l5.123,13.166l9.345-13.166h7.084l-14.037,19.74l-1.766,13.142h-6.17l1.811-13.143l-7.645-19.739H157.683z      M131.8,66.648h17.684l-0.758,5.834h-11.475l-0.942,6.796h11.533l-0.75,5.789h-11.587l-1.21,8.72h11.663l-0.745,5.743h-17.906     L131.8,66.648z M91.964,66.648h6.21l-3.767,27.229h10.209L103.9,99.53H87.469L91.964,66.648z M74.425,66.648l8.193,32.882h-5.991     l-1.743-6.997H61.838l-3.741,6.997h-6.641l17.761-32.882H74.425z M22.281,66.648h6.021l5.884,23.74l12.729-23.74h6.641     L35.951,99.53h-5.519L22.281,66.648z M45.825,128.741l-1.708,12.712H38.15l1.75-12.712l-7.394-19.091h6.049l4.956,12.733     l9.038-12.733h6.851L45.825,128.741z M91.522,133.142c-1.679,2.933-3.914,5.185-6.703,6.756     c-2.789,1.569-5.993,2.355-9.609,2.355c-4.528,0-8.141-1.339-10.844-4.021c-2.702-2.681-4.054-6.213-4.054-10.592     c0-4.977,1.615-9.248,4.844-12.824c3.603-3.977,8.208-5.968,13.815-5.968c4.368,0,7.971,1.405,10.812,4.218     c2.839,2.81,4.26,6.378,4.26,10.701C94.042,127.081,93.203,130.207,91.522,133.142 M120.363,128.633     c-0.535,3.906-1.233,6.71-2.1,8.408c-0.864,1.705-2.115,2.999-3.752,3.885c-1.637,0.884-3.628,1.327-5.979,1.327     c-3.171,0-5.645-0.842-7.417-2.529c-1.774-1.687-2.66-3.992-2.66-6.919c0-1.268,0.173-3.141,0.519-5.619l2.397-17.535h5.948     l-2.662,19.63c-0.229,1.716-0.345,2.928-0.345,3.632c0,1.198,0.372,2.13,1.114,2.801c0.742,0.67,1.82,1.005,3.233,1.005     c1.14,0,2.136-0.252,2.987-0.755c0.634-0.376,1.143-0.999,1.523-1.872c0.383-0.872,0.754-2.604,1.115-5.199l2.629-19.241h6.019     L120.363,128.633z M124.043,99.53h-16.432l4.495-32.882h6.21l-3.766,27.229h10.207L124.043,99.53z M134.304,141.453h-5.928     l3.572-26.139h-6.902l0.734-5.664h19.417l-0.691,5.664h-6.63L134.304,141.453z M166.995,141.453h-5.971l1.974-14.441h-10.92     l-1.993,14.441h-5.947l4.347-31.803h5.99l-1.655,11.996h10.91l1.64-11.996h6.014L166.995,141.453z"/>
			<path clip-path="url(#SVGID_4_)" fill="#010202" d="M78.755,114.492c-2.278,0-4.357,0.551-6.238,1.654     c-1.882,1.104-3.399,2.687-4.552,4.757c-1.152,2.066-1.729,4.204-1.729,6.411c0,2.607,0.8,4.822,2.401,6.638     c1.599,1.816,3.897,2.722,6.896,2.722c3.474,0,6.425-1.224,8.854-3.675c2.429-2.449,3.643-5.427,3.643-8.93     c0-2.896-0.853-5.217-2.561-6.962C83.76,115.364,81.522,114.492,78.755,114.492"/>
		</g>
	</g>
</g>
<circle fill="none" stroke="#FFFFFF" stroke-width="57" stroke-miterlimit="10" cx="100" cy="99" r="119.25"/>
<g display="none">
	<g display="inline">
		<defs>
			<rect id="SVGID_5_" width="200.001" height="200"/>
		</defs>
		<use xlink:href="#SVGID_5_" display="none" overflow="visible" fill="#FFFFFF"/>
		<clipPath id="SVGID_6_">
			<use xlink:href="#SVGID_5_" display="none" overflow="visible"/>
		</clipPath>
		<g display="none" clip-path="url(#SVGID_6_)">
			<defs>
				<rect id="SVGID_7_" width="200.001" height="200"/>
			</defs>
			<use xlink:href="#SVGID_7_" display="inline" overflow="visible" fill="#FFFFFF"/>
			<clipPath id="SVGID_8_" display="inline">
				<use xlink:href="#SVGID_7_" overflow="visible"/>
			</clipPath>
			<path display="inline" clip-path="url(#SVGID_8_)" fill="#010202" d="M100.256,8.165c-50.101,0-90.715,40.614-90.715,90.715     c0,50.098,40.614,90.714,90.715,90.714s90.714-40.616,90.714-90.714C190.971,48.779,150.357,8.165,100.256,8.165      M100.256,182.453c-46.157,0-83.575-37.416-83.575-83.574c0-46.157,37.418-83.575,83.575-83.575s83.575,37.418,83.575,83.575     C183.831,145.037,146.413,182.453,100.256,182.453"/>
		</g>
		<g display="none" clip-path="url(#SVGID_6_)">
			
				<text transform="matrix(1 0 0 1 24.7617 99.793)" display="inline" fill="#010202" font-family="'CenturyGothic-BoldItalic'" font-size="43.2937">VALLEY</text>
		</g>
		<g display="none" clip-path="url(#SVGID_6_)">
			
				<text transform="matrix(1 0 0 1 35.3008 139.4355)" display="inline" fill="#010202" font-family="'CenturyGothic-BoldItalic'" font-size="41.8729">YOUTH</text>
		</g>
		<circle opacity="0.3" clip-path="url(#SVGID_6_)" fill="#FFFFFF" cx="100.001" cy="98.938" r="96.109"/>
	</g>
</g>
<g>
	<path fill="#424242" d="M139.83,133.47c-0.234-0.253-0.514-0.455-0.84-0.604c-0.326-0.15-0.693-0.226-1.1-0.226   c-0.408,0-0.773,0.075-1.102,0.226c-0.326,0.149-0.605,0.352-0.84,0.604c-0.232,0.254-0.412,0.552-0.539,0.896   c-0.127,0.343-0.189,0.708-0.189,1.095s0.062,0.752,0.189,1.095c0.127,0.344,0.307,0.642,0.539,0.896   c0.234,0.253,0.514,0.455,0.84,0.604c0.328,0.15,0.693,0.226,1.102,0.226c0.406,0,0.773-0.075,1.1-0.226   c0.326-0.149,0.605-0.352,0.84-0.604c0.232-0.254,0.414-0.552,0.539-0.896c0.127-0.343,0.191-0.708,0.191-1.095   s-0.064-0.752-0.191-1.095C140.244,134.021,140.062,133.724,139.83,133.47z"/>
	<path fill="#424242" d="M90.82,133.47c-0.233-0.253-0.514-0.455-0.84-0.604c-0.327-0.15-0.693-0.226-1.1-0.226   c-0.407,0-0.773,0.075-1.1,0.226c-0.327,0.149-0.607,0.352-0.84,0.604c-0.234,0.254-0.414,0.552-0.54,0.896   c-0.127,0.343-0.19,0.708-0.19,1.095s0.063,0.752,0.19,1.095c0.126,0.344,0.306,0.642,0.54,0.896   c0.233,0.253,0.513,0.455,0.84,0.604c0.327,0.15,0.693,0.226,1.1,0.226c0.406,0,0.773-0.075,1.1-0.226   c0.327-0.149,0.607-0.352,0.84-0.604c0.233-0.254,0.413-0.552,0.54-0.896c0.126-0.343,0.19-0.708,0.19-1.095   s-0.063-0.752-0.19-1.095C91.233,134.021,91.054,133.724,90.82,133.47z"/>
	<path fill="#424242" d="M63.471,134.485c0.086-0.15,0.13-0.346,0.13-0.585c0-0.24-0.043-0.436-0.13-0.585   c-0.087-0.15-0.202-0.266-0.345-0.346c-0.143-0.08-0.307-0.135-0.49-0.165c-0.184-0.029-0.369-0.045-0.555-0.045h-1.26v2.28h1.26   c0.187,0,0.372-0.015,0.555-0.045c0.183-0.03,0.347-0.085,0.49-0.165C63.269,134.75,63.384,134.635,63.471,134.485z"/>
	<path fill="#424242" d="M114.995,133.8c-0.204-0.273-0.485-0.505-0.845-0.694c-0.36-0.19-0.827-0.285-1.4-0.285h-1.439v5.279h1.209   c0.407,0,0.792-0.055,1.156-0.165c0.363-0.109,0.681-0.274,0.954-0.494c0.273-0.221,0.49-0.495,0.65-0.825   c0.159-0.33,0.239-0.715,0.239-1.155c0-0.227-0.036-0.491-0.109-0.795C115.336,134.361,115.198,134.073,114.995,133.8z"/>
	<polygon fill="#424242" points="121.039,133.16 119.699,136.41 122.38,136.41 121.06,133.16  "/>
	<polygon fill="#424242" points="97.842,113.502 94.029,113.502 92.851,117.038 96.594,117.038  "/>
	<path fill="#424242" d="M99.5,12.25c-47.772,0-86.5,38.728-86.5,86.5c0,47.773,38.728,86.5,86.5,86.5   c47.773,0,86.5-38.727,86.5-86.5C186,50.978,147.273,12.25,99.5,12.25z M90.944,115.407c0.578-1.649,1.21-3.488,1.898-5.518   c0.688-2.027,1.41-4.162,2.166-6.404c0.756-2.241,1.513-4.471,2.269-6.689s1.478-4.343,2.166-6.377   c0.688-2.033,1.31-3.848,1.864-5.442s0.993-2.911,1.317-3.951c0.322-1.04,0.508-1.652,0.555-1.837   c0.045-0.416,0.08-0.867,0.104-1.352c0.023-0.485,0.011-0.959-0.034-1.421c-0.047-0.508-0.094-1.016-0.139-1.525   c-0.047-0.323-0.208-0.6-0.485-0.832c-0.277-0.23-0.578-0.346-0.901-0.346c-0.277,0-0.601,0.081-0.971,0.242   c-0.37,0.163-0.555,0.475-0.555,0.936v0.139v7.833h-2.356v-7.556v-0.416c0-0.323,0.067-0.669,0.202-1.04   c0.136-0.369,0.316-0.693,0.542-0.97c0.542-0.693,1.24-1.155,2.098-1.386c0.878-0.231,1.71-0.185,2.496,0.139   c0.785,0.37,1.409,0.925,1.871,1.664c0.231,0.462,0.37,0.855,0.416,1.178c0,0.047,0.011,0.254,0.035,0.624   c0.022,0.371,0.058,0.809,0.104,1.317c0.046,0.509,0.058,1.052,0.035,1.629c-0.024,0.579-0.059,1.075-0.104,1.491   c-0.046,0.232-0.231,0.855-0.555,1.872c-0.323,1.017-0.739,2.288-1.247,3.812c-0.51,1.525-1.087,3.224-1.733,5.095   c-0.647,1.872-1.294,3.778-1.94,5.719c-1.513,4.53-3.253,9.566-5.222,15.112h3.708c1.887-5.407,3.594-10.305,5.119-14.696   c0.646-1.848,1.282-3.697,1.906-5.546c0.624-1.848,1.189-3.511,1.698-4.991c0.508-1.479,0.924-2.738,1.248-3.778   c0.322-1.04,0.508-1.699,0.554-1.976c0.093-0.554,0.139-1.178,0.139-1.872c0-0.693-0.012-1.352-0.034-1.976   c-0.024-0.624-0.059-1.167-0.104-1.629c-0.046-0.461-0.069-0.716-0.069-0.763c-0.139-0.785-0.415-1.57-0.831-2.356   c-0.832-1.479-2.034-2.541-3.605-3.189c-1.524-0.693-3.143-0.808-4.852-0.347c-1.552,0.416-2.875,1.317-3.97,2.704   c-0.868,1.109-1.347,2.45-1.438,4.021v0.347v7.764H91.95v-7.764v-0.416c0-0.369,0.022-0.75,0.069-1.144   c0.045-0.392,0.161-0.843,0.347-1.352c0.369-1.109,0.877-2.08,1.525-2.911c1.326-1.803,3.063-2.981,5.212-3.536   c1.054-0.323,2.136-0.438,3.245-0.347c1.109,0.093,2.148,0.347,3.119,0.763c2.033,0.832,3.628,2.242,4.783,4.229   c0.277,0.509,0.508,1.029,0.693,1.56c0.184,0.532,0.322,1.075,0.416,1.629c0,0.093,0.022,0.393,0.069,0.901   c0.045,0.509,0.092,1.109,0.139,1.802c0.045,0.693,0.069,1.421,0.069,2.184c0,0.763-0.047,1.445-0.139,2.045   c-0.047,0.324-0.232,1.005-0.555,2.045c-0.324,1.04-0.728,2.3-1.213,3.778c-0.485,1.479-1.04,3.119-1.664,4.921   s-1.26,3.628-1.906,5.477c-1.525,4.298-3.213,9.105-5.061,14.418h10.676v2.356h-11.508l-1.214,3.536h12.755v2.356H98.327h-2.564   h-3.744h-2.496C89.893,118.388,90.366,117.059,90.944,115.407z M54.75,132.82h-3.49v2.22h3.25v0.9h-3.25V139h-0.96v-7.08h4.45   V132.82z M57.521,139h-0.96v-7.08h0.96V139z M63.691,139l-1.8-3.12h-1.07V139h-0.96v-7.08h2.49c0.454,0,0.827,0.062,1.12,0.186   c0.293,0.123,0.525,0.279,0.695,0.47c0.17,0.189,0.289,0.403,0.355,0.64c0.067,0.237,0.1,0.465,0.1,0.686   c0,0.227-0.04,0.444-0.12,0.654c-0.08,0.21-0.195,0.4-0.345,0.57s-0.333,0.313-0.55,0.43c-0.216,0.117-0.458,0.188-0.725,0.215   l2.01,3.23H63.691z M62.246,119.256c-1.618,0.23-3.166,0.139-4.644-0.277c-1.48-0.322-2.889-0.946-4.229-1.871   c-1.156-0.878-2.149-1.895-2.981-3.051c-0.648-0.924-1.178-1.951-1.594-3.085c-0.416-1.132-0.624-2.298-0.624-3.5v-1.109v-3.05   v-12.27v-12.2v-1.525v-0.416v-0.555c0-0.924,0.149-1.872,0.451-2.842c0.3-0.971,0.704-1.917,1.213-2.842   c0.739-1.201,1.664-2.288,2.773-3.258c1.109-0.877,2.333-1.571,3.674-2.08c1.571-0.554,3.142-0.808,4.714-0.762   c1.756,0.093,3.327,0.462,4.714,1.109c1.248,0.601,2.426,1.41,3.535,2.426c0.508,0.509,0.958,1.052,1.352,1.629   c0.392,0.579,0.751,1.19,1.075,1.837c0.739,1.525,1.155,3.143,1.248,4.852v0.971v0.762v1.525v6.1h-2.357v-6.1v-1.525v-0.762v-0.416   v-0.416c-0.046-0.785-0.162-1.525-0.346-2.218c-0.186-0.693-0.44-1.362-0.763-2.01c-0.371-0.646-0.774-1.248-1.213-1.802   c-0.44-0.555-0.936-1.04-1.491-1.456c-0.601-0.508-1.248-0.912-1.941-1.213c-0.693-0.3-1.41-0.542-2.149-0.728   c-1.571-0.323-3.166-0.277-4.783,0.139c-1.433,0.416-2.703,1.086-3.812,2.01c-1.109,0.97-1.987,2.126-2.634,3.466   c-0.37,0.832-0.624,1.641-0.762,2.426c-0.047,0.277-0.082,0.566-0.104,0.866c-0.024,0.301-0.035,0.589-0.035,0.867v0.416v1.525   v12.2v12.27v3.05v0.763c0,1.525,0.369,3.027,1.109,4.506c0.739,1.294,1.64,2.381,2.704,3.258c0.646,0.463,1.305,0.855,1.976,1.179   c0.669,0.323,1.397,0.555,2.184,0.693c1.525,0.323,3.073,0.277,4.645-0.139c1.386-0.323,2.657-0.971,3.812-1.941   c1.155-0.924,2.056-2.125,2.704-3.604c0.369-0.832,0.624-1.64,0.763-2.426c0.045-0.323,0.08-0.635,0.104-0.937   c0.023-0.3,0.035-0.611,0.035-0.936v-0.763v-6.1h2.357v6.1v0.763v0.485c-0.093,1.433-0.324,2.703-0.693,3.812   c-0.555,1.525-1.364,2.889-2.426,4.09c-0.971,1.109-2.104,2.011-3.397,2.703C65.111,118.562,63.724,119.025,62.246,119.256z    M62.8,73.436c-0.647-0.416-1.375-0.624-2.184-0.624c-0.809,0-1.537,0.185-2.184,0.555c-0.601,0.324-1.086,0.832-1.456,1.525   c-0.093,0.185-0.185,0.371-0.277,0.555c-0.093,0.185-0.163,0.37-0.208,0.554c-0.046,0.232-0.069,0.532-0.069,0.901v0.416v1.525   v12.2v12.27v3.05v0.693c0,1.341,0.555,2.426,1.664,3.258c0.647,0.463,1.352,0.728,2.114,0.797c0.763,0.069,1.491-0.08,2.184-0.45   c0.693-0.322,1.248-0.808,1.664-1.456c0.092-0.184,0.173-0.369,0.242-0.554s0.15-0.393,0.243-0.624   c0.092-0.462,0.139-0.809,0.139-1.04v-0.208v-0.763v-6.1h2.357v6.1v0.763v0.208v0.139c-0.046,0.647-0.163,1.271-0.347,1.871   c-0.185,0.602-0.462,1.156-0.832,1.664c-0.878,1.248-2.034,2.08-3.466,2.495c-0.74,0.232-1.502,0.324-2.288,0.277   c-0.786-0.045-1.525-0.23-2.218-0.554c-1.433-0.647-2.473-1.641-3.119-2.981c-0.416-0.785-0.648-1.548-0.693-2.287v-1.248v-3.05   v-12.27v-12.2v-1.525v-0.416v-0.277c0.045-0.508,0.127-0.981,0.243-1.421c0.115-0.439,0.288-0.889,0.52-1.352   c0.739-1.339,1.756-2.287,3.05-2.842c0.739-0.323,1.501-0.508,2.288-0.555c0.786-0.045,1.571,0.046,2.357,0.277   c1.387,0.509,2.519,1.364,3.397,2.565c0.738,1.202,1.109,2.403,1.109,3.604v2.08v0.693v6.1h-1.04h-1.179h-0.139v-0.139v-2.01   v-2.634v-1.317v-2.912C64.579,75.331,63.955,74.222,62.8,73.436z M73.801,139h-0.96v-5.82h-0.02l-2.39,5.82h-0.64l-2.39-5.82h-0.02   V139h-0.96v-7.08h1.43l2.25,5.36h0.04l2.23-5.36h1.43V139z M83.82,132.82h-3.49v2.22h3.25v0.9h-3.25V139h-0.96v-7.08h4.45V132.82z    M92.295,136.93c-0.184,0.454-0.437,0.847-0.76,1.181c-0.323,0.333-0.711,0.595-1.165,0.784c-0.453,0.19-0.95,0.285-1.49,0.285   s-1.037-0.095-1.49-0.285c-0.453-0.189-0.842-0.451-1.165-0.784c-0.323-0.334-0.577-0.727-0.76-1.181   c-0.184-0.453-0.275-0.943-0.275-1.47s0.091-1.017,0.275-1.47c0.183-0.453,0.437-0.847,0.76-1.181   c0.323-0.333,0.712-0.595,1.165-0.784c0.453-0.19,0.95-0.285,1.49-0.285s1.037,0.095,1.49,0.285   c0.454,0.189,0.842,0.451,1.165,0.784c0.323,0.334,0.577,0.728,0.76,1.181c0.183,0.453,0.275,0.943,0.275,1.47   S92.479,136.477,92.295,136.93z M99.82,136.41c0,0.413-0.07,0.788-0.21,1.125c-0.14,0.337-0.333,0.628-0.58,0.875   c-0.247,0.246-0.537,0.437-0.87,0.57c-0.333,0.133-0.693,0.199-1.08,0.199s-0.747-0.066-1.08-0.199   c-0.333-0.134-0.624-0.324-0.87-0.57c-0.247-0.247-0.44-0.538-0.58-0.875c-0.14-0.337-0.21-0.712-0.21-1.125v-4.49h0.96v4.34   c0,0.221,0.03,0.448,0.09,0.686c0.06,0.236,0.16,0.455,0.3,0.654c0.14,0.2,0.323,0.364,0.55,0.49c0.227,0.127,0.506,0.19,0.84,0.19   s0.613-0.063,0.84-0.19c0.227-0.126,0.41-0.29,0.55-0.49c0.14-0.199,0.24-0.418,0.3-0.654c0.06-0.237,0.09-0.465,0.09-0.686v-4.34   h0.96V136.41z M108.17,139h-1.22l-3.94-5.82h-0.02V139h-0.96v-7.08h1.26l3.899,5.82h0.021v-5.82h0.96V139z M116.29,136.775   c-0.167,0.423-0.413,0.8-0.739,1.13c-0.328,0.33-0.732,0.595-1.216,0.795s-1.042,0.3-1.675,0.3h-2.311v-7.08h2.471   c0.5,0,0.938,0.057,1.314,0.17s0.703,0.266,0.98,0.455c0.276,0.19,0.506,0.408,0.689,0.655c0.184,0.246,0.328,0.5,0.436,0.76   c0.106,0.26,0.184,0.521,0.23,0.78c0.046,0.26,0.069,0.5,0.069,0.72C116.54,135.913,116.457,136.352,116.29,136.775z M123.439,139   l-0.709-1.75h-3.371L118.66,139h-1.121l3.121-7.08h0.869l3.03,7.08H123.439z M129.8,132.82h-2.28V139h-0.959v-6.18h-2.281v-0.9   h5.521V132.82z M132.3,139h-0.96v-7.08h0.96V139z M141.305,136.93c-0.184,0.454-0.436,0.847-0.76,1.181   c-0.324,0.333-0.711,0.595-1.164,0.784c-0.455,0.19-0.951,0.285-1.49,0.285c-0.541,0-1.037-0.095-1.49-0.285   c-0.453-0.189-0.842-0.451-1.166-0.784c-0.322-0.334-0.576-0.727-0.76-1.181c-0.184-0.453-0.274-0.943-0.274-1.47   s0.091-1.017,0.274-1.47s0.438-0.847,0.76-1.181c0.324-0.333,0.713-0.595,1.166-0.784c0.453-0.19,0.949-0.285,1.49-0.285   c0.539,0,1.035,0.095,1.49,0.285c0.453,0.189,0.84,0.451,1.164,0.784c0.324,0.334,0.576,0.728,0.76,1.181s0.275,0.943,0.275,1.47   S141.488,136.477,141.305,136.93z M149.619,139h-1.22l-3.94-5.82h-0.02V139h-0.96v-7.08h1.26l3.9,5.82h0.02v-5.82h0.96V139z    M147.397,117.869c-1.295,0.693-2.681,1.156-4.159,1.387c-1.618,0.23-3.166,0.139-4.645-0.277   c-1.479-0.322-2.889-0.946-4.229-1.871c-1.156-0.878-2.149-1.895-2.981-3.051c-0.647-0.924-1.178-1.951-1.594-3.085   c-0.416-1.132-0.624-2.298-0.624-3.5v-1.109v-3.05v-12.27v-12.2v-1.525v-0.416v-0.555c0-0.924,0.149-1.872,0.45-2.842   c0.301-0.971,0.704-1.917,1.214-2.842c0.738-1.201,1.663-2.288,2.772-3.258c1.109-0.877,2.333-1.571,3.674-2.08   c1.57-0.554,3.143-0.808,4.714-0.762c1.756,0.093,3.327,0.462,4.714,1.109c1.248,0.601,2.426,1.41,3.535,2.426   c0.508,0.509,0.959,1.052,1.352,1.629c0.393,0.579,0.751,1.19,1.074,1.837c0.739,1.525,1.155,3.143,1.248,4.852v0.971v0.762v1.525   v6.1h-2.356v-6.1v-1.525v-0.762v-0.416v-0.416c-0.047-0.785-0.163-1.525-0.347-2.218c-0.186-0.693-0.44-1.362-0.763-2.01   c-0.37-0.646-0.774-1.248-1.213-1.802c-0.44-0.555-0.937-1.04-1.49-1.456c-0.602-0.508-1.248-0.912-1.941-1.213   c-0.693-0.3-1.41-0.542-2.148-0.728c-1.572-0.323-3.166-0.277-4.783,0.139c-1.434,0.416-2.704,1.086-3.812,2.01   c-1.109,0.97-1.988,2.126-2.635,3.466c-0.37,0.832-0.624,1.641-0.763,2.426c-0.046,0.277-0.081,0.566-0.104,0.866   c-0.023,0.301-0.035,0.589-0.035,0.867v0.416v1.525v12.2v12.27v3.05v0.763c0,1.525,0.37,3.027,1.109,4.506   c0.739,1.294,1.64,2.381,2.704,3.258c0.646,0.463,1.305,0.855,1.976,1.179c0.669,0.323,1.396,0.555,2.184,0.693   c1.524,0.323,3.072,0.277,4.644-0.139c1.387-0.323,2.657-0.971,3.813-1.941c1.154-0.924,2.056-2.125,2.703-3.604   c0.369-0.832,0.624-1.64,0.763-2.426c0.045-0.323,0.08-0.635,0.104-0.937c0.023-0.3,0.035-0.611,0.035-0.936v-0.763v-6.1h2.356v6.1   v0.763v0.485c-0.093,1.433-0.323,2.703-0.693,3.812c-0.555,1.525-1.363,2.889-2.426,4.09   C149.823,116.275,148.69,117.177,147.397,117.869z M143.793,73.436c-0.648-0.416-1.376-0.624-2.184-0.624   c-0.81,0-1.537,0.185-2.184,0.555c-0.602,0.324-1.087,0.832-1.456,1.525c-0.093,0.185-0.186,0.371-0.277,0.555   c-0.093,0.185-0.162,0.37-0.208,0.554c-0.047,0.232-0.069,0.532-0.069,0.901v0.416v1.525v12.2v12.27v3.05v0.693   c0,1.341,0.555,2.426,1.664,3.258c0.646,0.463,1.352,0.728,2.114,0.797c0.762,0.069,1.49-0.08,2.184-0.45   c0.692-0.322,1.247-0.808,1.663-1.456c0.093-0.184,0.174-0.369,0.243-0.554s0.149-0.393,0.242-0.624   c0.092-0.462,0.139-0.809,0.139-1.04v-0.208v-0.763v-6.1h2.357v6.1v0.763v0.208v0.139c-0.047,0.647-0.163,1.271-0.347,1.871   c-0.186,0.602-0.463,1.156-0.832,1.664c-0.879,1.248-2.034,2.08-3.466,2.495c-0.74,0.232-1.503,0.324-2.288,0.277   c-0.786-0.045-1.524-0.23-2.218-0.554c-1.434-0.647-2.473-1.641-3.12-2.981c-0.415-0.785-0.647-1.548-0.692-2.287v-1.248v-3.05   v-12.27v-12.2v-1.525v-0.416v-0.277c0.045-0.508,0.126-0.981,0.242-1.421c0.115-0.439,0.288-0.889,0.52-1.352   c0.739-1.339,1.756-2.287,3.051-2.842c0.738-0.323,1.501-0.508,2.287-0.555c0.785-0.045,1.57,0.046,2.357,0.277   c1.386,0.509,2.518,1.364,3.396,2.565c0.738,1.202,1.109,2.403,1.109,3.604v2.08v0.693v6.1h-1.04h-1.179h-0.139v-0.139v-2.01   v-2.634v-1.317v-2.912C145.571,75.331,144.947,74.222,143.793,73.436z M155.905,137.91c-0.131,0.273-0.306,0.503-0.525,0.689   c-0.22,0.188-0.48,0.33-0.78,0.431c-0.3,0.1-0.62,0.149-0.96,0.149c-0.453,0-0.883-0.08-1.29-0.239   c-0.406-0.16-0.729-0.407-0.97-0.74l0.79-0.681c0.173,0.261,0.395,0.452,0.665,0.575c0.27,0.124,0.548,0.186,0.835,0.186   c0.16,0,0.323-0.025,0.49-0.075c0.166-0.05,0.318-0.125,0.455-0.225c0.136-0.101,0.248-0.224,0.335-0.37   c0.086-0.146,0.13-0.317,0.13-0.511c0-0.272-0.087-0.481-0.261-0.625c-0.173-0.143-0.388-0.263-0.645-0.359s-0.537-0.19-0.84-0.28   c-0.304-0.09-0.584-0.215-0.84-0.375c-0.257-0.16-0.472-0.375-0.646-0.645c-0.173-0.271-0.26-0.636-0.26-1.096   c0-0.206,0.045-0.427,0.135-0.66c0.09-0.232,0.231-0.446,0.425-0.64s0.442-0.354,0.745-0.485c0.304-0.13,0.669-0.194,1.096-0.194   c0.386,0,0.756,0.053,1.109,0.16c0.354,0.106,0.663,0.323,0.931,0.649l-0.78,0.71c-0.12-0.187-0.29-0.336-0.51-0.45   c-0.221-0.113-0.471-0.17-0.75-0.17c-0.268,0-0.489,0.035-0.665,0.105c-0.177,0.07-0.318,0.16-0.426,0.27   c-0.106,0.11-0.182,0.229-0.225,0.355s-0.065,0.243-0.065,0.35c0,0.3,0.087,0.53,0.261,0.69c0.173,0.16,0.388,0.29,0.645,0.39   c0.257,0.101,0.537,0.19,0.84,0.271c0.304,0.08,0.584,0.191,0.84,0.335c0.257,0.144,0.472,0.337,0.646,0.58   c0.173,0.243,0.26,0.578,0.26,1.005C156.1,137.33,156.035,137.637,155.905,137.91z"/>
</g>
<text transform="matrix(1 0 0 1 38.2979 112.6758)" display="none" fill="#FFFFFF" font-family="'TimesNewRomanPS-BoldItalicMT'" font-size="99.2468">mb</text>
<text transform="matrix(1 0 0 1 74.0811 126.459)" display="none" fill="#FFFFFF" font-family="'Avenir-Black'" font-size="31.6749" letter-spacing="1">MB</text>
<circle display="none" fill="none" stroke="#FFFFFF" stroke-miterlimit="10" cx="100" cy="99" r="80.462"/>
<circle display="none" fill="none" stroke="#FFFFFF" stroke-miterlimit="10" cx="100" cy="99.001" r="76.596"/>
<path display="none" fill="#DD8718" d="M116.452,63.252c0.51,5.46-1.188,10.59-4.916,11.913  c7.799-20.35-13.149-25.809-14.749-42.354c-12.715,12.078,0.818,27.147-7.74,34.613c2.334-5.721,2.145-13.271-4.128-16.911  c3.56,6.452-9.675,18.043-10.343,27.902c-0.667,6.311,1.782,10.971,6.079,14.117c1.813-7.186,10.234-15.127,7.701-19.719  c4.866,2.824,5.012,8.68,3.203,13.118c6.637-5.792-3.861-17.481,6.003-26.85c1.24,12.834,17.49,17.068,11.441,32.854  c2.892-1.026,4.208-5.004,3.813-9.24c2.936,2.152,5.833,5.229,6.943,9.142c3.351-2.636,5.228-5.833,5.871-8.834  C127.552,74.052,122.047,67.354,116.452,63.252z"/>
<text transform="matrix(1 0 0 1 73.6865 145)" display="none" fill="#FFFFFF" font-family="'BookmanOldStyle-BoldItalic'" font-size="22.1646" letter-spacing="1">men</text>
<circle display="none" opacity="0.2" fill="#FFFFFF" cx="100" cy="100" r="98.25"/>
<g display="none">
</g>
</svg>