<svg id="Layer_1" height="512" viewBox="0 0 512 512" width="512" xmlns="http://www.w3.org/2000/svg" data-name="Layer 1"><path d="m59.03 287.31a6 6 0 0 0 -6 6v4.61a6 6 0 0 0 12 0v-4.61a6 6 0 0 0 -6-6z"/><path d="m59.03 310.09a6 6 0 0 0 -6 6v51.51a6 6 0 0 0 12 0v-51.51a6 6 0 0 0 -6-6z"/><path d="m484.18 135.38h-17.94v-26.64a6 6 0 0 0 -6-6h-47.33a6 6 0 0 0 -6 6v26.64h-30.83v-26.64a6 6 0 0 0 -6-6h-47.33a6 6 0 0 0 -6 6v26.64h-30.82v-26.64a6 6 0 0 0 -6-6h-47.33a6 6 0 0 0 -6 6v26.64h-17.95a6 6 0 0 0 -6 6v125.16h-7.4v-26.64a6 6 0 0 0 -6-6h-47.33a6 6 0 0 0 -6 6v26.64h-30.83v-26.64a6 6 0 0 0 -6-6h-47.33a6 6 0 0 0 -6 6v26.64h-17.94a6 6 0 0 0 -6 6v130.72a6 6 0 0 0 6 6h275.53a6 6 0 0 0 6-6v-125.16h174.83a6 6 0 0 0 6-6v-130.72a6 6 0 0 0 -6-6zm-65.27-20.64h35.33v20.64h-35.33zm-90.16 0h35.33v20.64h-35.33zm-90.15 0h35.33v20.64h-35.33zm-90.68 131.16h35.33v20.64h-35.33zm-90.16 0h35.33v20.64h-35.33zm420.42 20.2h-208.18a6 6 0 0 0 0 12h27.35v119.16h-263.53v-118.72l207.31-.44a6 6 0 0 0 0-12h-26.48v-118.72h263.53z"/><path d="m240.13 175.92a6 6 0 0 0 6-6v-4.61a6 6 0 0 0 -12 0v4.61a6 6 0 0 0 6 6z"/><path d="m240.13 245.59a6 6 0 0 0 6-6v-51.5a6 6 0 0 0 -12 0v51.5a6 6 0 0 0 6 6z"/></svg>