<svg id="Capa_1" enable-background="new 0 0 512 512" height="512" viewBox="0 0 512 512" width="512" xmlns="http://www.w3.org/2000/svg"><circle cx="336.34" cy="264.861" r="7.5"/><path d="m170.839 382.343c-26.479 0-48.02 21.542-48.02 48.019 0 26.478 21.541 48.02 48.02 48.02s48.02-21.542 48.02-48.02c-.001-26.478-21.542-48.019-48.02-48.019zm0 81.038c-18.207 0-33.02-14.813-33.02-33.02s14.813-33.019 33.02-33.019 33.02 14.813 33.02 33.019c-.001 18.208-14.813 33.02-33.02 33.02z"/><path d="m170.839 409.783c-11.347 0-20.578 9.231-20.578 20.579s9.231 20.579 20.578 20.579c11.348 0 20.579-9.231 20.579-20.579s-9.231-20.579-20.579-20.579zm0 26.157c-3.076 0-5.578-2.502-5.578-5.579s2.502-5.579 5.578-5.579 5.579 2.502 5.579 5.579-2.503 5.579-5.579 5.579z"/><path d="m19.692 70.427h85.752l34.338 34.339c2.294 2.293 5.827 2.868 8.747 1.359l58.147 58.147h-98.771c-4.143 0-7.5 3.358-7.5 7.5v35.158c0 4.142 3.357 7.5 7.5 7.5h.706v81.304c0 19.055 15.503 34.558 34.559 34.558h91.277l-32.347 32.346c-49.003-22.71-105.855 13.143-105.855 67.724 0 41.131 33.463 74.594 74.594 74.594 53.806 0 89.879-55.532 68.32-104.536h127.089c4.143 0 7.5-3.358 7.5-7.5s-3.357-7.5-7.5-7.5h-114.005l10.765-10.765h154.052l10.765 10.765h-26.577c-4.143 0-7.5 3.358-7.5 7.5s3.357 7.5 7.5 7.5h23.886c-.137 1.399-.056 1.635-.08 10.04 0 5.285 2.478 10.001 6.332 13.05-32.344 28.246-12.119 81.446 30.489 81.446 42.605 0 62.834-53.198 30.489-81.446 8.781-6.945 5.705-16.798 6.333-21.459 0-9.17-7.461-16.631-16.631-16.631h-.695c-3.244-11.128-8.467-11.708-50.524-55.129h38.389c19.055 0 34.558-15.503 34.558-34.558v-81.303h.706c4.143 0 7.5-3.358 7.5-7.5v-35.158c0-4.142-3.357-7.5-7.5-7.5h-.878c-1.055-22.959-6.958-44.971-17.365-65.039l.416-.24c3.587-2.071 4.816-6.658 2.745-10.245-2.071-3.588-6.66-4.817-10.245-2.745l-.448.258c-2.585-4.002-5.362-7.91-8.33-11.713-2.548-3.266-7.262-3.847-10.526-1.299-3.266 2.548-3.848 7.261-1.3 10.527 2.537 3.251 4.919 6.586 7.146 9.997l-99.608 57.509 57.511-99.612c11.617 7.589 11.594 9.682 15.802 9.682 7.052 0 10.241-8.936 4.678-13.367-4.198-3.344-8.525-6.454-12.968-9.326l.64-1.108c2.071-3.587.842-8.174-2.745-10.245-3.589-2.072-8.175-.843-10.245 2.745l-.62 1.073c-20.068-10.412-42.086-16.311-65.083-17.359-.39-3.776-3.581-6.721-7.46-6.721h-35.157c-4.143 0-7.5 3.358-7.5 7.5v149.728h-38.132l-87.221-87.221c1.46-2.823 1.007-6.38-1.361-8.748l-41.891-41.89c-4.868-4.87-11.344-7.552-18.231-7.552h-96.432c-10.858 0-19.692 8.834-19.692 19.693v12.181c0 10.858 8.834 19.692 19.692 19.692zm293.218 163.141c-2.978 2.235-5.627 4.884-7.862 7.862-5.929-5.929-135.995-135.994-145.661-145.66l7.862-7.862c4.498 4.497 121.104 121.103 145.661 145.66zm61.495 40.281c6.655-28.187-18.76-53.733-47.053-47.053l-12.366-12.366h78.762v78.762zm-62.173-8.989c0-13.293 10.815-24.107 24.108-24.107s24.107 10.814 24.107 24.107-10.814 24.108-24.107 24.108-24.108-10.815-24.108-24.108zm33.098 38.065 12.366 12.366h-35.323l11.406-11.406c3.895.253 7.782-.07 11.551-.96zm-229.925-123.653h106.271l20.158 20.158h-126.429zm103.252 136.02v-34.026c0-4.142-3.357-7.5-7.5-7.5s-7.5 3.358-7.5 7.5v34.026h-60.487c-10.784 0-19.559-8.774-19.559-19.558v-81.304h80.046v31.836c0 4.142 3.357 7.5 7.5 7.5s7.5-3.358 7.5-7.5v-31.836h38.177l41.441 41.441c-.891 3.776-1.212 7.664-.96 11.551l-47.869 47.869h-30.789zm83.482-31.48c3.557 6.394 8.856 11.692 15.25 15.249-14.635 14.635-64.208 64.208-86.729 86.729-4.319-5.794-9.455-10.93-15.249-15.25 9.275-9.275 76.574-76.573 86.728-86.728zm-131.3 206.144c-32.86 0-59.594-26.734-59.594-59.594s26.733-59.594 59.594-59.594 59.595 26.734 59.595 59.594-26.735 59.594-59.595 59.594zm107.169-130.3 29.365-29.364h65.323l29.364 29.364zm189.428 67.436v18.996c0 3.065-2.494 5.56-5.56 5.56s-5.56-2.494-5.56-5.56v-18.996zm-5.56 62.864c-17.332 0-31.433-14.101-31.433-31.432 0-9.292 4.116-17.914 10.873-23.775v11.339c0 11.336 9.223 20.56 20.56 20.56s20.56-9.223 20.56-20.56v-11.339c6.757 5.862 10.873 14.483 10.873 23.775 0 17.331-14.101 31.432-31.433 31.432zm21.821-87.905v8.409c0 .899-.731 1.631-1.631 1.631 0 0-25.683 0-40.381 0-.899 0-1.631-.732-1.631-1.631v-8.409c0-.899.731-1.631 1.631-1.631h40.381c.9 0 1.631.732 1.631 1.631zm-18.994-16.631h-15.665c-9.174-9.174-80.93-80.93-89.267-89.267 2.978-2.235 5.627-4.885 7.862-7.862 12.727 12.729 96.666 96.65 97.07 97.129zm24.091-89.687c0 10.784-8.773 19.558-19.558 19.558h-53.389l-7.1-7.1v-93.761h80.046v81.303zm-.19-131.461h-114.997l99.641-57.527c9.11 17.784 14.325 37.241 15.356 57.527zm-135.487-20.49v-114.997c20.306 1.029 39.756 6.241 57.532 15.35zm-35.157-121.738h20.157v142.228h-20.157zm179.04 157.228v20.158h-197.014l-20.158-20.158zm-482-140.718c0-2.587 2.105-4.693 4.692-4.693h96.432c2.881 0 5.588 1.122 7.624 3.158l36.588 36.587-15.25 15.25c-31.882-30.852-31.08-33.429-36.535-33.429h-88.859c-2.587 0-4.692-2.105-4.692-4.692z"/></svg>