<?xml version="1.0" encoding="UTF-8"?>
<!-- Generator: Adobe Illustrator 16.0.0, SVG Export Plug-In . SVG Version: 6.00 Build 0)  -->
<!DOCTYPE svg PUBLIC "-//W3C//DTD SVG 1.1//EN" "http://www.w3.org/Graphics/SVG/1.1/DTD/svg11.dtd">
<svg version="1.1" id="Layer_1" xmlns="http://www.w3.org/2000/svg" xmlns:xlink="http://www.w3.org/1999/xlink" x="0px" y="0px" width="200px" height="200px" viewBox="0 0 200 200" enable-background="new 0 0 200 200" xml:space="preserve">
<g display="none">
	
		<image display="inline" overflow="visible" width="397" height="425" id="valley_kidz_1_" xlink:href="A366687D92A2C654.png" transform="matrix(0.4647 0 0 0.4647 7.75 0)">
	</image>
</g>
<circle display="none" fill="none" stroke="#FFFFFF" stroke-width="57" stroke-miterlimit="10" cx="100" cy="99" r="119.25"/>
<g>
	<g>
		<defs>
			<rect id="SVGID_1_" x="-6.25" y="-6" width="211.5" height="211.5"/>
		</defs>
		<clipPath id="SVGID_2_">
			<use xlink:href="#SVGID_1_" overflow="visible"/>
		</clipPath>
		<polygon clip-path="url(#SVGID_2_)" fill="#010202" points="70.737,75.891 64.945,86.721 73.366,86.721   "/>
		<g clip-path="url(#SVGID_2_)">
			<defs>
				<rect id="SVGID_3_" x="-6.25" y="-6" width="211.5" height="211.5"/>
			</defs>
			<clipPath id="SVGID_4_">
				<use xlink:href="#SVGID_3_" overflow="visible"/>
			</clipPath>
			<path clip-path="url(#SVGID_4_)" fill="#010202" d="M99.771,8.555c-49.711,0-90.009,40.299-90.009,90.008     c0,49.711,40.298,90.009,90.009,90.009c49.71,0,90.009-40.298,90.009-90.009C189.78,48.854,149.481,8.555,99.771,8.555      M157.683,66.648l5.123,13.166l9.345-13.166h7.084l-14.037,19.74l-1.766,13.142h-6.17l1.811-13.143l-7.645-19.739H157.683z      M131.8,66.648h17.684l-0.758,5.834h-11.475l-0.942,6.796h11.533l-0.75,5.789h-11.587l-1.21,8.72h11.663l-0.745,5.743h-17.906     L131.8,66.648z M91.964,66.648h6.21l-3.767,27.229h10.209L103.9,99.53H87.469L91.964,66.648z M74.425,66.648l8.193,32.882h-5.991     l-1.743-6.997H61.838l-3.741,6.997h-6.641l17.761-32.882H74.425z M22.281,66.648h6.021l5.884,23.74l12.729-23.74h6.641     L35.951,99.53h-5.519L22.281,66.648z M45.825,128.741l-1.708,12.712H38.15l1.75-12.712l-7.394-19.091h6.049l4.956,12.733     l9.038-12.733h6.851L45.825,128.741z M91.522,133.142c-1.679,2.933-3.914,5.185-6.703,6.756     c-2.789,1.569-5.993,2.355-9.609,2.355c-4.528,0-8.141-1.339-10.844-4.021c-2.702-2.681-4.054-6.213-4.054-10.592     c0-4.977,1.615-9.248,4.844-12.824c3.603-3.977,8.208-5.968,13.815-5.968c4.368,0,7.971,1.405,10.812,4.218     c2.839,2.81,4.26,6.378,4.26,10.701C94.042,127.081,93.203,130.207,91.522,133.142 M120.363,128.633     c-0.535,3.906-1.233,6.71-2.1,8.408c-0.864,1.705-2.115,2.999-3.752,3.885c-1.637,0.884-3.628,1.327-5.979,1.327     c-3.171,0-5.645-0.842-7.417-2.529c-1.774-1.687-2.66-3.992-2.66-6.919c0-1.268,0.173-3.141,0.519-5.619l2.397-17.535h5.948     l-2.662,19.63c-0.229,1.716-0.345,2.928-0.345,3.632c0,1.198,0.372,2.13,1.114,2.801c0.742,0.67,1.82,1.005,3.233,1.005     c1.14,0,2.136-0.252,2.987-0.755c0.634-0.376,1.143-0.999,1.523-1.872c0.383-0.872,0.754-2.604,1.115-5.199l2.629-19.241h6.019     L120.363,128.633z M124.043,99.53h-16.432l4.495-32.882h6.21l-3.766,27.229h10.207L124.043,99.53z M134.304,141.453h-5.928     l3.572-26.139h-6.902l0.734-5.664h19.417l-0.691,5.664h-6.63L134.304,141.453z M166.995,141.453h-5.971l1.974-14.441h-10.92     l-1.993,14.441h-5.947l4.347-31.803h5.99l-1.655,11.996h10.91l1.64-11.996h6.014L166.995,141.453z"/>
			<path clip-path="url(#SVGID_4_)" fill="#010202" d="M78.755,114.492c-2.278,0-4.357,0.551-6.238,1.654     c-1.882,1.104-3.399,2.687-4.552,4.757c-1.152,2.066-1.729,4.204-1.729,6.411c0,2.607,0.8,4.822,2.401,6.638     c1.599,1.816,3.897,2.722,6.896,2.722c3.474,0,6.425-1.224,8.854-3.675c2.429-2.449,3.643-5.427,3.643-8.93     c0-2.896-0.853-5.217-2.561-6.962C83.76,115.364,81.522,114.492,78.755,114.492"/>
		</g>
	</g>
</g>
<g display="none">
	<g display="inline">
		<defs>
			<rect id="SVGID_5_" width="200.001" height="200"/>
		</defs>
		<use xlink:href="#SVGID_5_" display="none" overflow="visible" fill="#FFFFFF"/>
		<clipPath id="SVGID_6_">
			<use xlink:href="#SVGID_5_" display="none" overflow="visible"/>
		</clipPath>
		<g display="none" clip-path="url(#SVGID_6_)">
			<defs>
				<rect id="SVGID_7_" width="200.001" height="200"/>
			</defs>
			<use xlink:href="#SVGID_7_" display="inline" overflow="visible" fill="#FFFFFF"/>
			<clipPath id="SVGID_8_" display="inline">
				<use xlink:href="#SVGID_7_" overflow="visible"/>
			</clipPath>
			<path display="inline" clip-path="url(#SVGID_8_)" fill="#010202" d="M100.256,8.165c-50.101,0-90.715,40.614-90.715,90.715     c0,50.098,40.614,90.714,90.715,90.714s90.714-40.616,90.714-90.714C190.971,48.779,150.357,8.165,100.256,8.165      M100.256,182.453c-46.157,0-83.575-37.416-83.575-83.574c0-46.157,37.418-83.575,83.575-83.575s83.575,37.418,83.575,83.575     C183.831,145.037,146.413,182.453,100.256,182.453"/>
		</g>
		<g display="none" clip-path="url(#SVGID_6_)">
			
				<text transform="matrix(1 0 0 1 24.7617 99.793)" display="inline" fill="#010202" font-family="'CenturyGothic-BoldItalic'" font-size="43.2937">VALLEY</text>
		</g>
		<g display="none" clip-path="url(#SVGID_6_)">
			
				<text transform="matrix(1 0 0 1 35.3008 139.4355)" display="inline" fill="#010202" font-family="'CenturyGothic-BoldItalic'" font-size="41.8729">YOUTH</text>
		</g>
		<circle opacity="0.3" clip-path="url(#SVGID_6_)" fill="#FFFFFF" cx="100.001" cy="98.938" r="96.109"/>
	</g>
</g>
</svg>